<mxfile host="app.diagrams.net" modified="2022-04-24T12:50:42.256Z" agent="5.0 (Macintosh; Intel Mac OS X 10_15_7) AppleWebKit/537.36 (KHTML, like Gecko) Chrome/100.0.4896.60 Safari/537.36" etag="x4ovtr1mjswZ7hqfWB_J" version="17.4.3" type="github">
  <diagram id="C5RBs43oDa-KdzZeNtuy" name="Page-1">
    <mxGraphModel dx="384" dy="809" grid="1" gridSize="10" guides="1" tooltips="1" connect="1" arrows="1" fold="1" page="1" pageScale="1" pageWidth="827" pageHeight="1169" math="0" shadow="0">
      <root>
        <mxCell id="WIyWlLk6GJQsqaUBKTNV-0" />
        <mxCell id="WIyWlLk6GJQsqaUBKTNV-1" parent="WIyWlLk6GJQsqaUBKTNV-0" />
        <mxCell id="kHzVwr2ERPSeEH-SLxBd-100" value="" style="edgeStyle=orthogonalEdgeStyle;rounded=0;orthogonalLoop=1;jettySize=auto;html=1;" edge="1" parent="WIyWlLk6GJQsqaUBKTNV-1" source="kHzVwr2ERPSeEH-SLxBd-97" target="kHzVwr2ERPSeEH-SLxBd-98">
          <mxGeometry relative="1" as="geometry" />
        </mxCell>
        <mxCell id="kHzVwr2ERPSeEH-SLxBd-97" value="获取店铺数据" style="rounded=1;whiteSpace=wrap;html=1;" vertex="1" parent="WIyWlLk6GJQsqaUBKTNV-1">
          <mxGeometry x="1121" y="60" width="120" height="60" as="geometry" />
        </mxCell>
        <mxCell id="kHzVwr2ERPSeEH-SLxBd-98" value="是否满足触发条件" style="rhombus;whiteSpace=wrap;html=1;" vertex="1" parent="WIyWlLk6GJQsqaUBKTNV-1">
          <mxGeometry x="1140" y="160" width="81" height="80" as="geometry" />
        </mxCell>
        <mxCell id="kHzVwr2ERPSeEH-SLxBd-113" value="" style="endArrow=classic;html=1;rounded=0;" edge="1" parent="WIyWlLk6GJQsqaUBKTNV-1">
          <mxGeometry relative="1" as="geometry">
            <mxPoint x="1180" y="240" as="sourcePoint" />
            <mxPoint x="1180" y="320" as="targetPoint" />
          </mxGeometry>
        </mxCell>
        <mxCell id="kHzVwr2ERPSeEH-SLxBd-114" value="满足" style="edgeLabel;resizable=0;html=1;align=center;verticalAlign=middle;" connectable="0" vertex="1" parent="kHzVwr2ERPSeEH-SLxBd-113">
          <mxGeometry relative="1" as="geometry" />
        </mxCell>
        <mxCell id="kHzVwr2ERPSeEH-SLxBd-115" value="" style="verticalLabelPosition=bottom;verticalAlign=top;html=1;shape=mxgraph.flowchart.parallel_mode;pointerEvents=1" vertex="1" parent="WIyWlLk6GJQsqaUBKTNV-1">
          <mxGeometry x="1134" y="320" width="95" height="40" as="geometry" />
        </mxCell>
        <mxCell id="kHzVwr2ERPSeEH-SLxBd-120" value="" style="endArrow=classic;html=1;rounded=0;entryX=0.5;entryY=0;entryDx=0;entryDy=0;" edge="1" parent="WIyWlLk6GJQsqaUBKTNV-1" source="kHzVwr2ERPSeEH-SLxBd-115" target="kHzVwr2ERPSeEH-SLxBd-124">
          <mxGeometry relative="1" as="geometry">
            <mxPoint x="1100" y="390" as="sourcePoint" />
            <mxPoint x="1100" y="440" as="targetPoint" />
          </mxGeometry>
        </mxCell>
        <mxCell id="kHzVwr2ERPSeEH-SLxBd-121" value="人工" style="edgeLabel;resizable=0;html=1;align=center;verticalAlign=middle;" connectable="0" vertex="1" parent="kHzVwr2ERPSeEH-SLxBd-120">
          <mxGeometry relative="1" as="geometry" />
        </mxCell>
        <mxCell id="kHzVwr2ERPSeEH-SLxBd-122" value="" style="endArrow=classic;html=1;rounded=0;exitX=0.705;exitY=1.013;exitDx=0;exitDy=0;exitPerimeter=0;" edge="1" parent="WIyWlLk6GJQsqaUBKTNV-1" source="kHzVwr2ERPSeEH-SLxBd-115">
          <mxGeometry relative="1" as="geometry">
            <mxPoint x="1210" y="380" as="sourcePoint" />
            <mxPoint x="1360" y="440" as="targetPoint" />
          </mxGeometry>
        </mxCell>
        <mxCell id="kHzVwr2ERPSeEH-SLxBd-123" value="算法" style="edgeLabel;resizable=0;html=1;align=center;verticalAlign=middle;" connectable="0" vertex="1" parent="kHzVwr2ERPSeEH-SLxBd-122">
          <mxGeometry relative="1" as="geometry" />
        </mxCell>
        <mxCell id="kHzVwr2ERPSeEH-SLxBd-128" value="" style="edgeStyle=orthogonalEdgeStyle;rounded=0;orthogonalLoop=1;jettySize=auto;html=1;" edge="1" parent="WIyWlLk6GJQsqaUBKTNV-1" source="kHzVwr2ERPSeEH-SLxBd-124" target="kHzVwr2ERPSeEH-SLxBd-127">
          <mxGeometry relative="1" as="geometry" />
        </mxCell>
        <mxCell id="kHzVwr2ERPSeEH-SLxBd-134" value="是" style="edgeLabel;html=1;align=center;verticalAlign=middle;resizable=0;points=[];" vertex="1" connectable="0" parent="kHzVwr2ERPSeEH-SLxBd-128">
          <mxGeometry x="-0.3287" y="1" relative="1" as="geometry">
            <mxPoint y="1" as="offset" />
          </mxGeometry>
        </mxCell>
        <mxCell id="kHzVwr2ERPSeEH-SLxBd-137" value="" style="edgeStyle=orthogonalEdgeStyle;rounded=0;orthogonalLoop=1;jettySize=auto;html=1;" edge="1" parent="WIyWlLk6GJQsqaUBKTNV-1" source="kHzVwr2ERPSeEH-SLxBd-124" target="kHzVwr2ERPSeEH-SLxBd-136">
          <mxGeometry relative="1" as="geometry">
            <Array as="points">
              <mxPoint x="1010" y="560" />
              <mxPoint x="1181" y="560" />
            </Array>
          </mxGeometry>
        </mxCell>
        <mxCell id="kHzVwr2ERPSeEH-SLxBd-139" value="否" style="edgeLabel;html=1;align=center;verticalAlign=middle;resizable=0;points=[];" vertex="1" connectable="0" parent="kHzVwr2ERPSeEH-SLxBd-137">
          <mxGeometry x="-0.8276" y="1" relative="1" as="geometry">
            <mxPoint y="1" as="offset" />
          </mxGeometry>
        </mxCell>
        <mxCell id="kHzVwr2ERPSeEH-SLxBd-124" value="&lt;span&gt;用户（这个店铺下的这个账号）是否选择“忽略此向导”&lt;/span&gt;" style="rhombus;whiteSpace=wrap;html=1;" vertex="1" parent="WIyWlLk6GJQsqaUBKTNV-1">
          <mxGeometry x="970" y="440" width="80" height="80" as="geometry" />
        </mxCell>
        <mxCell id="kHzVwr2ERPSeEH-SLxBd-127" value="过滤掉" style="rounded=1;whiteSpace=wrap;html=1;" vertex="1" parent="WIyWlLk6GJQsqaUBKTNV-1">
          <mxGeometry x="1121.5" y="450" width="120" height="60" as="geometry" />
        </mxCell>
        <mxCell id="kHzVwr2ERPSeEH-SLxBd-130" value="" style="edgeStyle=orthogonalEdgeStyle;rounded=0;orthogonalLoop=1;jettySize=auto;html=1;" edge="1" parent="WIyWlLk6GJQsqaUBKTNV-1" source="kHzVwr2ERPSeEH-SLxBd-131" target="kHzVwr2ERPSeEH-SLxBd-132">
          <mxGeometry relative="1" as="geometry" />
        </mxCell>
        <mxCell id="kHzVwr2ERPSeEH-SLxBd-135" value="是" style="edgeLabel;html=1;align=center;verticalAlign=middle;resizable=0;points=[];" vertex="1" connectable="0" parent="kHzVwr2ERPSeEH-SLxBd-130">
          <mxGeometry x="-0.0667" relative="1" as="geometry">
            <mxPoint y="1" as="offset" />
          </mxGeometry>
        </mxCell>
        <mxCell id="kHzVwr2ERPSeEH-SLxBd-138" style="edgeStyle=orthogonalEdgeStyle;rounded=0;orthogonalLoop=1;jettySize=auto;html=1;entryX=0.5;entryY=0;entryDx=0;entryDy=0;" edge="1" parent="WIyWlLk6GJQsqaUBKTNV-1" source="kHzVwr2ERPSeEH-SLxBd-131" target="kHzVwr2ERPSeEH-SLxBd-136">
          <mxGeometry relative="1" as="geometry">
            <Array as="points">
              <mxPoint x="1360" y="560" />
              <mxPoint x="1181" y="560" />
            </Array>
          </mxGeometry>
        </mxCell>
        <mxCell id="kHzVwr2ERPSeEH-SLxBd-140" value="否" style="edgeLabel;html=1;align=center;verticalAlign=middle;resizable=0;points=[];" vertex="1" connectable="0" parent="kHzVwr2ERPSeEH-SLxBd-138">
          <mxGeometry x="-0.8104" y="1" relative="1" as="geometry">
            <mxPoint as="offset" />
          </mxGeometry>
        </mxCell>
        <mxCell id="kHzVwr2ERPSeEH-SLxBd-131" value="用户（这个店铺下的这个账号）7天内是否选择“忽略此向导”" style="rhombus;whiteSpace=wrap;html=1;" vertex="1" parent="WIyWlLk6GJQsqaUBKTNV-1">
          <mxGeometry x="1320" y="440" width="80" height="80" as="geometry" />
        </mxCell>
        <mxCell id="kHzVwr2ERPSeEH-SLxBd-132" value="过滤掉" style="rounded=1;whiteSpace=wrap;html=1;" vertex="1" parent="WIyWlLk6GJQsqaUBKTNV-1">
          <mxGeometry x="1470" y="450" width="120" height="60" as="geometry" />
        </mxCell>
        <mxCell id="kHzVwr2ERPSeEH-SLxBd-142" value="" style="edgeStyle=orthogonalEdgeStyle;rounded=0;orthogonalLoop=1;jettySize=auto;html=1;" edge="1" parent="WIyWlLk6GJQsqaUBKTNV-1" source="kHzVwr2ERPSeEH-SLxBd-136" target="kHzVwr2ERPSeEH-SLxBd-141">
          <mxGeometry relative="1" as="geometry" />
        </mxCell>
        <mxCell id="kHzVwr2ERPSeEH-SLxBd-136" value="合并卡片" style="rounded=1;whiteSpace=wrap;html=1;" vertex="1" parent="WIyWlLk6GJQsqaUBKTNV-1">
          <mxGeometry x="1121" y="610" width="120" height="60" as="geometry" />
        </mxCell>
        <mxCell id="kHzVwr2ERPSeEH-SLxBd-141" value="" style="verticalLabelPosition=bottom;verticalAlign=top;html=1;shape=mxgraph.flowchart.parallel_mode;pointerEvents=1" vertex="1" parent="WIyWlLk6GJQsqaUBKTNV-1">
          <mxGeometry x="1133" y="720" width="95" height="40" as="geometry" />
        </mxCell>
        <mxCell id="kHzVwr2ERPSeEH-SLxBd-143" value="" style="endArrow=classic;html=1;rounded=0;exitX=0.821;exitY=1.038;exitDx=0;exitDy=0;exitPerimeter=0;" edge="1" parent="WIyWlLk6GJQsqaUBKTNV-1" source="kHzVwr2ERPSeEH-SLxBd-141">
          <mxGeometry relative="1" as="geometry">
            <mxPoint x="1229" y="799.5" as="sourcePoint" />
            <mxPoint x="1360" y="840" as="targetPoint" />
          </mxGeometry>
        </mxCell>
        <mxCell id="kHzVwr2ERPSeEH-SLxBd-144" value="功能action" style="edgeLabel;resizable=0;html=1;align=center;verticalAlign=middle;" connectable="0" vertex="1" parent="kHzVwr2ERPSeEH-SLxBd-143">
          <mxGeometry relative="1" as="geometry" />
        </mxCell>
        <mxCell id="kHzVwr2ERPSeEH-SLxBd-145" value="" style="endArrow=classic;html=1;rounded=0;exitX=0.821;exitY=1.038;exitDx=0;exitDy=0;exitPerimeter=0;" edge="1" parent="WIyWlLk6GJQsqaUBKTNV-1">
          <mxGeometry relative="1" as="geometry">
            <mxPoint x="1150.0049999999999" y="760.76" as="sourcePoint" />
            <mxPoint x="1010" y="840" as="targetPoint" />
          </mxGeometry>
        </mxCell>
        <mxCell id="kHzVwr2ERPSeEH-SLxBd-146" value="插件action" style="edgeLabel;resizable=0;html=1;align=center;verticalAlign=middle;" connectable="0" vertex="1" parent="kHzVwr2ERPSeEH-SLxBd-145">
          <mxGeometry relative="1" as="geometry" />
        </mxCell>
        <mxCell id="kHzVwr2ERPSeEH-SLxBd-150" value="" style="edgeStyle=orthogonalEdgeStyle;rounded=0;orthogonalLoop=1;jettySize=auto;html=1;" edge="1" parent="WIyWlLk6GJQsqaUBKTNV-1" source="kHzVwr2ERPSeEH-SLxBd-147" target="kHzVwr2ERPSeEH-SLxBd-149">
          <mxGeometry relative="1" as="geometry" />
        </mxCell>
        <mxCell id="kHzVwr2ERPSeEH-SLxBd-151" value="有" style="edgeLabel;html=1;align=center;verticalAlign=middle;resizable=0;points=[];" vertex="1" connectable="0" parent="kHzVwr2ERPSeEH-SLxBd-150">
          <mxGeometry x="-0.0875" relative="1" as="geometry">
            <mxPoint as="offset" />
          </mxGeometry>
        </mxCell>
        <mxCell id="kHzVwr2ERPSeEH-SLxBd-147" value="&lt;div class=&quot;lake-content&quot;&gt;&lt;span class=&quot;ne-text&quot;&gt;该店铺是否可见此应用（通过FK或应用可见范围）&lt;/span&gt;&lt;/div&gt;" style="rhombus;whiteSpace=wrap;html=1;shadow=0;fontFamily=Helvetica;fontSize=12;align=center;strokeWidth=1;spacing=6;spacingTop=-4;" vertex="1" parent="WIyWlLk6GJQsqaUBKTNV-1">
          <mxGeometry x="1309.5" y="840" width="101" height="80" as="geometry" />
        </mxCell>
        <mxCell id="kHzVwr2ERPSeEH-SLxBd-164" style="edgeStyle=orthogonalEdgeStyle;rounded=0;orthogonalLoop=1;jettySize=auto;html=1;entryX=0.5;entryY=0;entryDx=0;entryDy=0;" edge="1" parent="WIyWlLk6GJQsqaUBKTNV-1" source="kHzVwr2ERPSeEH-SLxBd-148" target="kHzVwr2ERPSeEH-SLxBd-158">
          <mxGeometry relative="1" as="geometry">
            <mxPoint x="1181" y="1050" as="targetPoint" />
            <Array as="points">
              <mxPoint x="1010" y="1150" />
              <mxPoint x="1181" y="1150" />
            </Array>
          </mxGeometry>
        </mxCell>
        <mxCell id="kHzVwr2ERPSeEH-SLxBd-165" value="有" style="edgeLabel;html=1;align=center;verticalAlign=middle;resizable=0;points=[];" vertex="1" connectable="0" parent="kHzVwr2ERPSeEH-SLxBd-164">
          <mxGeometry x="-0.7159" y="1" relative="1" as="geometry">
            <mxPoint as="offset" />
          </mxGeometry>
        </mxCell>
        <mxCell id="kHzVwr2ERPSeEH-SLxBd-148" value="&lt;div class=&quot;lake-content&quot;&gt;&lt;span class=&quot;ne-text&quot;&gt;店铺是否有此功能FK&lt;/span&gt;&lt;/div&gt;" style="rhombus;whiteSpace=wrap;html=1;shadow=0;fontFamily=Helvetica;fontSize=12;align=center;strokeWidth=1;spacing=6;spacingTop=-4;" vertex="1" parent="WIyWlLk6GJQsqaUBKTNV-1">
          <mxGeometry x="959.5" y="840" width="101" height="80" as="geometry" />
        </mxCell>
        <mxCell id="kHzVwr2ERPSeEH-SLxBd-153" value="" style="edgeStyle=orthogonalEdgeStyle;rounded=0;orthogonalLoop=1;jettySize=auto;html=1;" edge="1" parent="WIyWlLk6GJQsqaUBKTNV-1" source="kHzVwr2ERPSeEH-SLxBd-149" target="kHzVwr2ERPSeEH-SLxBd-152">
          <mxGeometry relative="1" as="geometry" />
        </mxCell>
        <mxCell id="kHzVwr2ERPSeEH-SLxBd-154" value="安装" style="edgeLabel;html=1;align=center;verticalAlign=middle;resizable=0;points=[];" vertex="1" connectable="0" parent="kHzVwr2ERPSeEH-SLxBd-153">
          <mxGeometry x="-0.05" y="2" relative="1" as="geometry">
            <mxPoint y="-2" as="offset" />
          </mxGeometry>
        </mxCell>
        <mxCell id="kHzVwr2ERPSeEH-SLxBd-156" value="" style="edgeStyle=orthogonalEdgeStyle;rounded=0;orthogonalLoop=1;jettySize=auto;html=1;exitX=0.5;exitY=1;exitDx=0;exitDy=0;" edge="1" parent="WIyWlLk6GJQsqaUBKTNV-1" source="kHzVwr2ERPSeEH-SLxBd-149">
          <mxGeometry relative="1" as="geometry">
            <mxPoint x="1180" y="1220" as="targetPoint" />
            <Array as="points">
              <mxPoint x="1360" y="1150" />
              <mxPoint x="1180" y="1150" />
            </Array>
          </mxGeometry>
        </mxCell>
        <mxCell id="kHzVwr2ERPSeEH-SLxBd-157" value="登入" style="edgeLabel;html=1;align=center;verticalAlign=middle;resizable=0;points=[];" vertex="1" connectable="0" parent="kHzVwr2ERPSeEH-SLxBd-156">
          <mxGeometry x="-0.125" y="-2" relative="1" as="geometry">
            <mxPoint x="67" y="-38" as="offset" />
          </mxGeometry>
        </mxCell>
        <mxCell id="kHzVwr2ERPSeEH-SLxBd-149" value="action跟进" style="rhombus;whiteSpace=wrap;html=1;shadow=0;strokeWidth=1;spacing=6;spacingTop=-4;" vertex="1" parent="WIyWlLk6GJQsqaUBKTNV-1">
          <mxGeometry x="1320" y="1000" width="80" height="80" as="geometry" />
        </mxCell>
        <mxCell id="kHzVwr2ERPSeEH-SLxBd-159" value="" style="edgeStyle=orthogonalEdgeStyle;rounded=0;orthogonalLoop=1;jettySize=auto;html=1;entryX=0.5;entryY=0;entryDx=0;entryDy=0;" edge="1" parent="WIyWlLk6GJQsqaUBKTNV-1" source="kHzVwr2ERPSeEH-SLxBd-152" target="kHzVwr2ERPSeEH-SLxBd-158">
          <mxGeometry relative="1" as="geometry">
            <mxPoint x="1100" y="1190" as="targetPoint" />
            <Array as="points">
              <mxPoint x="1490" y="1150" />
              <mxPoint x="1181" y="1150" />
            </Array>
          </mxGeometry>
        </mxCell>
        <mxCell id="kHzVwr2ERPSeEH-SLxBd-162" value="否" style="edgeLabel;html=1;align=center;verticalAlign=middle;resizable=0;points=[];" vertex="1" connectable="0" parent="kHzVwr2ERPSeEH-SLxBd-159">
          <mxGeometry x="-0.5" y="1" relative="1" as="geometry">
            <mxPoint as="offset" />
          </mxGeometry>
        </mxCell>
        <mxCell id="kHzVwr2ERPSeEH-SLxBd-152" value="是否安装" style="rhombus;whiteSpace=wrap;html=1;shadow=0;strokeWidth=1;spacing=6;spacingTop=-4;" vertex="1" parent="WIyWlLk6GJQsqaUBKTNV-1">
          <mxGeometry x="1450" y="1000" width="80" height="80" as="geometry" />
        </mxCell>
        <mxCell id="kHzVwr2ERPSeEH-SLxBd-167" value="" style="edgeStyle=orthogonalEdgeStyle;rounded=0;orthogonalLoop=1;jettySize=auto;html=1;" edge="1" parent="WIyWlLk6GJQsqaUBKTNV-1" source="kHzVwr2ERPSeEH-SLxBd-158" target="kHzVwr2ERPSeEH-SLxBd-166">
          <mxGeometry relative="1" as="geometry" />
        </mxCell>
        <mxCell id="kHzVwr2ERPSeEH-SLxBd-158" value="合并卡片" style="rounded=1;whiteSpace=wrap;html=1;shadow=0;strokeWidth=1;spacing=6;spacingTop=-4;" vertex="1" parent="WIyWlLk6GJQsqaUBKTNV-1">
          <mxGeometry x="1121" y="1220" width="120" height="60" as="geometry" />
        </mxCell>
        <mxCell id="kHzVwr2ERPSeEH-SLxBd-169" value="" style="edgeStyle=orthogonalEdgeStyle;rounded=0;orthogonalLoop=1;jettySize=auto;html=1;" edge="1" parent="WIyWlLk6GJQsqaUBKTNV-1" source="kHzVwr2ERPSeEH-SLxBd-166" target="kHzVwr2ERPSeEH-SLxBd-168">
          <mxGeometry relative="1" as="geometry" />
        </mxCell>
        <mxCell id="kHzVwr2ERPSeEH-SLxBd-170" value="是" style="edgeLabel;html=1;align=center;verticalAlign=middle;resizable=0;points=[];" vertex="1" connectable="0" parent="kHzVwr2ERPSeEH-SLxBd-169">
          <mxGeometry x="-0.075" y="1" relative="1" as="geometry">
            <mxPoint as="offset" />
          </mxGeometry>
        </mxCell>
        <mxCell id="kHzVwr2ERPSeEH-SLxBd-179" style="edgeStyle=orthogonalEdgeStyle;rounded=0;orthogonalLoop=1;jettySize=auto;html=1;" edge="1" parent="WIyWlLk6GJQsqaUBKTNV-1" source="kHzVwr2ERPSeEH-SLxBd-166">
          <mxGeometry relative="1" as="geometry">
            <mxPoint x="1181.5" y="1797" as="targetPoint" />
            <Array as="points">
              <mxPoint x="1441.5" y="1367" />
              <mxPoint x="1441.5" y="1767" />
              <mxPoint x="1181.5" y="1767" />
            </Array>
          </mxGeometry>
        </mxCell>
        <mxCell id="kHzVwr2ERPSeEH-SLxBd-181" value="否" style="edgeLabel;html=1;align=center;verticalAlign=middle;resizable=0;points=[];" vertex="1" connectable="0" parent="kHzVwr2ERPSeEH-SLxBd-179">
          <mxGeometry x="-0.822" relative="1" as="geometry">
            <mxPoint y="1" as="offset" />
          </mxGeometry>
        </mxCell>
        <mxCell id="kHzVwr2ERPSeEH-SLxBd-166" value="是否含同触发条件" style="rhombus;whiteSpace=wrap;html=1;rounded=1;shadow=0;strokeWidth=1;spacing=6;spacingTop=-4;" vertex="1" parent="WIyWlLk6GJQsqaUBKTNV-1">
          <mxGeometry x="1141.5" y="1327" width="80" height="80" as="geometry" />
        </mxCell>
        <mxCell id="kHzVwr2ERPSeEH-SLxBd-172" value="" style="edgeStyle=orthogonalEdgeStyle;rounded=0;orthogonalLoop=1;jettySize=auto;html=1;" edge="1" parent="WIyWlLk6GJQsqaUBKTNV-1" source="kHzVwr2ERPSeEH-SLxBd-168" target="kHzVwr2ERPSeEH-SLxBd-171">
          <mxGeometry relative="1" as="geometry" />
        </mxCell>
        <mxCell id="kHzVwr2ERPSeEH-SLxBd-175" value="报告" style="edgeLabel;html=1;align=center;verticalAlign=middle;resizable=0;points=[];" vertex="1" connectable="0" parent="kHzVwr2ERPSeEH-SLxBd-172">
          <mxGeometry x="-0.2667" relative="1" as="geometry">
            <mxPoint as="offset" />
          </mxGeometry>
        </mxCell>
        <mxCell id="kHzVwr2ERPSeEH-SLxBd-174" value="" style="edgeStyle=orthogonalEdgeStyle;rounded=0;orthogonalLoop=1;jettySize=auto;html=1;" edge="1" parent="WIyWlLk6GJQsqaUBKTNV-1" source="kHzVwr2ERPSeEH-SLxBd-168" target="kHzVwr2ERPSeEH-SLxBd-173">
          <mxGeometry relative="1" as="geometry" />
        </mxCell>
        <mxCell id="kHzVwr2ERPSeEH-SLxBd-176" value="应用" style="edgeLabel;html=1;align=center;verticalAlign=middle;resizable=0;points=[];" vertex="1" connectable="0" parent="kHzVwr2ERPSeEH-SLxBd-174">
          <mxGeometry x="-0.2444" y="1" relative="1" as="geometry">
            <mxPoint as="offset" />
          </mxGeometry>
        </mxCell>
        <mxCell id="kHzVwr2ERPSeEH-SLxBd-168" value="action类型" style="rhombus;whiteSpace=wrap;html=1;rounded=1;shadow=0;strokeWidth=1;spacing=6;spacingTop=-4;" vertex="1" parent="WIyWlLk6GJQsqaUBKTNV-1">
          <mxGeometry x="1141.5" y="1487" width="80" height="80" as="geometry" />
        </mxCell>
        <mxCell id="kHzVwr2ERPSeEH-SLxBd-180" style="edgeStyle=orthogonalEdgeStyle;rounded=0;orthogonalLoop=1;jettySize=auto;html=1;entryX=0.5;entryY=0;entryDx=0;entryDy=0;" edge="1" parent="WIyWlLk6GJQsqaUBKTNV-1" source="kHzVwr2ERPSeEH-SLxBd-171" target="kHzVwr2ERPSeEH-SLxBd-177">
          <mxGeometry relative="1" as="geometry">
            <mxPoint x="1181.5" y="1747" as="targetPoint" />
            <Array as="points">
              <mxPoint x="1341.5" y="1757" />
              <mxPoint x="1181.5" y="1757" />
            </Array>
          </mxGeometry>
        </mxCell>
        <mxCell id="kHzVwr2ERPSeEH-SLxBd-171" value="&lt;span&gt;按照7天报告访问量desc做优先级取第一条&lt;/span&gt;" style="whiteSpace=wrap;html=1;rounded=1;shadow=0;strokeWidth=1;spacing=6;spacingTop=-4;" vertex="1" parent="WIyWlLk6GJQsqaUBKTNV-1">
          <mxGeometry x="1281.5" y="1497" width="120" height="60" as="geometry" />
        </mxCell>
        <mxCell id="kHzVwr2ERPSeEH-SLxBd-178" value="" style="edgeStyle=orthogonalEdgeStyle;rounded=0;orthogonalLoop=1;jettySize=auto;html=1;" edge="1" parent="WIyWlLk6GJQsqaUBKTNV-1" source="kHzVwr2ERPSeEH-SLxBd-173" target="kHzVwr2ERPSeEH-SLxBd-177">
          <mxGeometry relative="1" as="geometry" />
        </mxCell>
        <mxCell id="kHzVwr2ERPSeEH-SLxBd-173" value="&lt;span&gt;按照安装类desc取第一条&lt;/span&gt;" style="whiteSpace=wrap;html=1;rounded=1;shadow=0;strokeWidth=1;spacing=6;spacingTop=-4;" vertex="1" parent="WIyWlLk6GJQsqaUBKTNV-1">
          <mxGeometry x="1121.5" y="1657" width="120" height="60" as="geometry" />
        </mxCell>
        <mxCell id="kHzVwr2ERPSeEH-SLxBd-183" value="" style="edgeStyle=orthogonalEdgeStyle;rounded=0;orthogonalLoop=1;jettySize=auto;html=1;" edge="1" parent="WIyWlLk6GJQsqaUBKTNV-1" source="kHzVwr2ERPSeEH-SLxBd-177" target="kHzVwr2ERPSeEH-SLxBd-182">
          <mxGeometry relative="1" as="geometry" />
        </mxCell>
        <mxCell id="kHzVwr2ERPSeEH-SLxBd-177" value="合并卡片" style="whiteSpace=wrap;html=1;rounded=1;shadow=0;strokeWidth=1;spacing=6;spacingTop=-4;" vertex="1" parent="WIyWlLk6GJQsqaUBKTNV-1">
          <mxGeometry x="1121.5" y="1797" width="120" height="60" as="geometry" />
        </mxCell>
        <mxCell id="kHzVwr2ERPSeEH-SLxBd-185" value="" style="edgeStyle=orthogonalEdgeStyle;rounded=0;orthogonalLoop=1;jettySize=auto;html=1;" edge="1" parent="WIyWlLk6GJQsqaUBKTNV-1" source="kHzVwr2ERPSeEH-SLxBd-182">
          <mxGeometry relative="1" as="geometry">
            <mxPoint x="1181.5" y="2057" as="targetPoint" />
          </mxGeometry>
        </mxCell>
        <mxCell id="kHzVwr2ERPSeEH-SLxBd-189" value="否" style="edgeLabel;html=1;align=center;verticalAlign=middle;resizable=0;points=[];" vertex="1" connectable="0" parent="kHzVwr2ERPSeEH-SLxBd-185">
          <mxGeometry x="-0.3444" y="1" relative="1" as="geometry">
            <mxPoint as="offset" />
          </mxGeometry>
        </mxCell>
        <mxCell id="kHzVwr2ERPSeEH-SLxBd-187" value="" style="edgeStyle=orthogonalEdgeStyle;rounded=0;orthogonalLoop=1;jettySize=auto;html=1;" edge="1" parent="WIyWlLk6GJQsqaUBKTNV-1" source="kHzVwr2ERPSeEH-SLxBd-182" target="kHzVwr2ERPSeEH-SLxBd-186">
          <mxGeometry relative="1" as="geometry" />
        </mxCell>
        <mxCell id="kHzVwr2ERPSeEH-SLxBd-188" value="是" style="edgeLabel;html=1;align=center;verticalAlign=middle;resizable=0;points=[];" vertex="1" connectable="0" parent="kHzVwr2ERPSeEH-SLxBd-187">
          <mxGeometry x="-0.2199" y="1" relative="1" as="geometry">
            <mxPoint x="1" y="1" as="offset" />
          </mxGeometry>
        </mxCell>
        <mxCell id="kHzVwr2ERPSeEH-SLxBd-182" value="&lt;div class=&quot;lake-content&quot;&gt;&lt;span class=&quot;ne-text&quot;&gt;是否含同一action&lt;/span&gt;&lt;/div&gt;" style="rhombus;whiteSpace=wrap;html=1;shadow=0;fontFamily=Helvetica;fontSize=12;align=center;strokeWidth=1;spacing=6;spacingTop=-4;" vertex="1" parent="WIyWlLk6GJQsqaUBKTNV-1">
          <mxGeometry x="1131" y="1887" width="101" height="80" as="geometry" />
        </mxCell>
        <mxCell id="kHzVwr2ERPSeEH-SLxBd-191" style="edgeStyle=orthogonalEdgeStyle;rounded=0;orthogonalLoop=1;jettySize=auto;html=1;entryX=0.5;entryY=0;entryDx=0;entryDy=0;entryPerimeter=0;" edge="1" parent="WIyWlLk6GJQsqaUBKTNV-1" source="kHzVwr2ERPSeEH-SLxBd-186" target="kHzVwr2ERPSeEH-SLxBd-190">
          <mxGeometry relative="1" as="geometry">
            <mxPoint x="1181.5" y="2027" as="targetPoint" />
            <Array as="points">
              <mxPoint x="1362.5" y="2027" />
              <mxPoint x="1182.5" y="2027" />
            </Array>
          </mxGeometry>
        </mxCell>
        <mxCell id="kHzVwr2ERPSeEH-SLxBd-186" value="怎么选？" style="rounded=1;whiteSpace=wrap;html=1;shadow=0;strokeWidth=1;spacing=6;spacingTop=-4;" vertex="1" parent="WIyWlLk6GJQsqaUBKTNV-1">
          <mxGeometry x="1302.5" y="1897" width="120" height="60" as="geometry" />
        </mxCell>
        <mxCell id="kHzVwr2ERPSeEH-SLxBd-190" value="" style="strokeWidth=2;html=1;shape=mxgraph.flowchart.terminator;whiteSpace=wrap;" vertex="1" parent="WIyWlLk6GJQsqaUBKTNV-1">
          <mxGeometry x="1132" y="2057" width="100" height="60" as="geometry" />
        </mxCell>
      </root>
    </mxGraphModel>
  </diagram>
</mxfile>
